<mxfile host="app.diagrams.net" modified="2023-06-05T13:36:32.811Z" agent="Mozilla/5.0 (Windows NT 10.0; Win64; x64) AppleWebKit/537.36 (KHTML, like Gecko) Chrome/114.0.0.0 Safari/537.36" etag="fRHvuGed6u-H0IgtdwJy" version="21.3.7" type="device">
  <diagram name="Página-1" id="np_EzysI-0YJK-0KCrZf">
    <mxGraphModel dx="2049" dy="1010" grid="1" gridSize="10" guides="1" tooltips="1" connect="1" arrows="1" fold="1" page="1" pageScale="1" pageWidth="827" pageHeight="1169" math="0" shadow="0">
      <root>
        <mxCell id="0" />
        <mxCell id="1" parent="0" />
        <mxCell id="Ot4UVluapDfgmTh8NWDO-1" value="&lt;b&gt;&lt;font style=&quot;font-size: 17px;&quot;&gt;MER/DER Solicitações - Prova BCD&amp;nbsp;&lt;/font&gt;&lt;/b&gt;" style="text;strokeColor=none;align=center;fillColor=none;html=1;verticalAlign=middle;whiteSpace=wrap;rounded=0;" vertex="1" parent="1">
          <mxGeometry x="760" y="30" width="310" height="80" as="geometry" />
        </mxCell>
        <mxCell id="Ot4UVluapDfgmTh8NWDO-3" value="&lt;b&gt;Solicita&lt;/b&gt;" style="shape=rhombus;perimeter=rhombusPerimeter;whiteSpace=wrap;html=1;align=center;fillColor=#6a00ff;fontColor=#ffffff;strokeColor=#3700CC;" vertex="1" parent="1">
          <mxGeometry x="860" y="410" width="120" height="60" as="geometry" />
        </mxCell>
        <mxCell id="Ot4UVluapDfgmTh8NWDO-4" value="" style="endArrow=none;html=1;rounded=0;entryX=0.5;entryY=1;entryDx=0;entryDy=0;exitX=0.5;exitY=0;exitDx=0;exitDy=0;" edge="1" parent="1" source="Ot4UVluapDfgmTh8NWDO-41" target="Ot4UVluapDfgmTh8NWDO-8">
          <mxGeometry relative="1" as="geometry">
            <mxPoint x="300" y="490" as="sourcePoint" />
            <mxPoint x="530" y="500" as="targetPoint" />
          </mxGeometry>
        </mxCell>
        <mxCell id="Ot4UVluapDfgmTh8NWDO-8" value="&lt;b&gt;Funcionarios&lt;/b&gt;" style="whiteSpace=wrap;html=1;align=center;fillColor=#1ba1e2;fontColor=#ffffff;strokeColor=#006EAF;" vertex="1" parent="1">
          <mxGeometry x="480" y="420" width="100" height="40" as="geometry" />
        </mxCell>
        <mxCell id="Ot4UVluapDfgmTh8NWDO-9" value="nome_func" style="ellipse;whiteSpace=wrap;html=1;align=center;fillColor=#60a917;fontColor=#ffffff;strokeColor=#2D7600;" vertex="1" parent="1">
          <mxGeometry x="290" y="550" width="100" height="40" as="geometry" />
        </mxCell>
        <mxCell id="Ot4UVluapDfgmTh8NWDO-10" value="sexo" style="ellipse;whiteSpace=wrap;html=1;align=center;fillColor=#60a917;fontColor=#ffffff;strokeColor=#2D7600;" vertex="1" parent="1">
          <mxGeometry x="480" y="584" width="100" height="40" as="geometry" />
        </mxCell>
        <mxCell id="Ot4UVluapDfgmTh8NWDO-11" value="cidade" style="ellipse;whiteSpace=wrap;html=1;align=center;fillColor=#60a917;fontColor=#ffffff;strokeColor=#2D7600;" vertex="1" parent="1">
          <mxGeometry x="650" y="550" width="100" height="40" as="geometry" />
        </mxCell>
        <mxCell id="Ot4UVluapDfgmTh8NWDO-12" value="estado" style="ellipse;whiteSpace=wrap;html=1;align=center;fillColor=#60a917;fontColor=#ffffff;strokeColor=#2D7600;" vertex="1" parent="1">
          <mxGeometry x="710" y="490" width="100" height="40" as="geometry" />
        </mxCell>
        <mxCell id="Ot4UVluapDfgmTh8NWDO-14" value="" style="endArrow=none;html=1;rounded=0;entryX=0.5;entryY=1;entryDx=0;entryDy=0;exitX=0.5;exitY=0;exitDx=0;exitDy=0;" edge="1" parent="1" source="Ot4UVluapDfgmTh8NWDO-9" target="Ot4UVluapDfgmTh8NWDO-8">
          <mxGeometry relative="1" as="geometry">
            <mxPoint x="370" y="520" as="sourcePoint" />
            <mxPoint x="540" y="470" as="targetPoint" />
          </mxGeometry>
        </mxCell>
        <mxCell id="Ot4UVluapDfgmTh8NWDO-15" value="" style="endArrow=none;html=1;rounded=0;entryX=0.5;entryY=1;entryDx=0;entryDy=0;exitX=0.5;exitY=0;exitDx=0;exitDy=0;" edge="1" parent="1" source="Ot4UVluapDfgmTh8NWDO-10" target="Ot4UVluapDfgmTh8NWDO-8">
          <mxGeometry relative="1" as="geometry">
            <mxPoint x="430" y="570" as="sourcePoint" />
            <mxPoint x="540" y="470" as="targetPoint" />
          </mxGeometry>
        </mxCell>
        <mxCell id="Ot4UVluapDfgmTh8NWDO-16" value="" style="endArrow=none;html=1;rounded=0;entryX=0.5;entryY=1;entryDx=0;entryDy=0;exitX=0.5;exitY=0;exitDx=0;exitDy=0;" edge="1" parent="1" source="Ot4UVluapDfgmTh8NWDO-11" target="Ot4UVluapDfgmTh8NWDO-8">
          <mxGeometry relative="1" as="geometry">
            <mxPoint x="440" y="580" as="sourcePoint" />
            <mxPoint x="550" y="480" as="targetPoint" />
          </mxGeometry>
        </mxCell>
        <mxCell id="Ot4UVluapDfgmTh8NWDO-17" value="" style="endArrow=none;html=1;rounded=0;entryX=0.5;entryY=1;entryDx=0;entryDy=0;exitX=0.5;exitY=0;exitDx=0;exitDy=0;" edge="1" parent="1" source="Ot4UVluapDfgmTh8NWDO-12" target="Ot4UVluapDfgmTh8NWDO-8">
          <mxGeometry relative="1" as="geometry">
            <mxPoint x="450" y="590" as="sourcePoint" />
            <mxPoint x="560" y="490" as="targetPoint" />
          </mxGeometry>
        </mxCell>
        <mxCell id="Ot4UVluapDfgmTh8NWDO-23" value="" style="endArrow=none;html=1;rounded=0;entryX=0;entryY=0.5;entryDx=0;entryDy=0;strokeWidth=3;" edge="1" parent="1" target="Ot4UVluapDfgmTh8NWDO-3">
          <mxGeometry relative="1" as="geometry">
            <mxPoint x="580" y="439.40999999999997" as="sourcePoint" />
            <mxPoint x="740" y="439.40999999999997" as="targetPoint" />
          </mxGeometry>
        </mxCell>
        <mxCell id="Ot4UVluapDfgmTh8NWDO-24" value="N" style="resizable=0;html=1;whiteSpace=wrap;align=right;verticalAlign=bottom;" connectable="0" vertex="1" parent="Ot4UVluapDfgmTh8NWDO-23">
          <mxGeometry x="1" relative="1" as="geometry" />
        </mxCell>
        <mxCell id="Ot4UVluapDfgmTh8NWDO-25" value="&lt;b&gt;Produtos&lt;/b&gt;" style="whiteSpace=wrap;html=1;align=center;fillColor=#1ba1e2;fontColor=#ffffff;strokeColor=#006EAF;" vertex="1" parent="1">
          <mxGeometry x="1260" y="420" width="100" height="40" as="geometry" />
        </mxCell>
        <mxCell id="Ot4UVluapDfgmTh8NWDO-27" value="Cod_produto" style="ellipse;whiteSpace=wrap;html=1;align=center;fontStyle=4;fillColor=#0050ef;fontColor=#ffffff;strokeColor=#001DBC;" vertex="1" parent="1">
          <mxGeometry x="1137" y="490" width="100" height="40" as="geometry" />
        </mxCell>
        <mxCell id="Ot4UVluapDfgmTh8NWDO-30" value="Nome_produto" style="ellipse;whiteSpace=wrap;html=1;align=center;fillColor=#0050ef;fontColor=#ffffff;strokeColor=#001DBC;" vertex="1" parent="1">
          <mxGeometry x="1380" y="490" width="100" height="40" as="geometry" />
        </mxCell>
        <mxCell id="Ot4UVluapDfgmTh8NWDO-35" value="" style="endArrow=none;html=1;rounded=0;entryX=0.5;entryY=1;entryDx=0;entryDy=0;exitX=0.5;exitY=0;exitDx=0;exitDy=0;" edge="1" parent="1" source="Ot4UVluapDfgmTh8NWDO-27" target="Ot4UVluapDfgmTh8NWDO-25">
          <mxGeometry relative="1" as="geometry">
            <mxPoint x="1070" y="440" as="sourcePoint" />
            <mxPoint x="1230" y="440" as="targetPoint" />
          </mxGeometry>
        </mxCell>
        <mxCell id="Ot4UVluapDfgmTh8NWDO-36" value="" style="endArrow=none;html=1;rounded=0;entryX=0.5;entryY=1;entryDx=0;entryDy=0;exitX=0.5;exitY=0;exitDx=0;exitDy=0;" edge="1" parent="1" source="Ot4UVluapDfgmTh8NWDO-30" target="Ot4UVluapDfgmTh8NWDO-25">
          <mxGeometry relative="1" as="geometry">
            <mxPoint x="1400" y="500" as="sourcePoint" />
            <mxPoint x="1230" y="440" as="targetPoint" />
          </mxGeometry>
        </mxCell>
        <mxCell id="Ot4UVluapDfgmTh8NWDO-38" value="" style="endArrow=none;html=1;rounded=0;exitX=1;exitY=0.5;exitDx=0;exitDy=0;entryX=0;entryY=0.5;entryDx=0;entryDy=0;" edge="1" parent="1" source="Ot4UVluapDfgmTh8NWDO-3" target="Ot4UVluapDfgmTh8NWDO-25">
          <mxGeometry relative="1" as="geometry">
            <mxPoint x="1080" y="440" as="sourcePoint" />
            <mxPoint x="1240" y="440" as="targetPoint" />
          </mxGeometry>
        </mxCell>
        <mxCell id="Ot4UVluapDfgmTh8NWDO-39" value="N" style="resizable=0;html=1;whiteSpace=wrap;align=right;verticalAlign=bottom;" connectable="0" vertex="1" parent="Ot4UVluapDfgmTh8NWDO-38">
          <mxGeometry x="1" relative="1" as="geometry" />
        </mxCell>
        <mxCell id="Ot4UVluapDfgmTh8NWDO-41" value="cod_func" style="ellipse;whiteSpace=wrap;html=1;align=center;fontStyle=4;fillColor=#60a917;fontColor=#ffffff;strokeColor=#2D7600;" vertex="1" parent="1">
          <mxGeometry x="250" y="490" width="100" height="40" as="geometry" />
        </mxCell>
        <mxCell id="Ot4UVluapDfgmTh8NWDO-44" value="" style="endArrow=none;html=1;rounded=0;entryX=0.5;entryY=0;entryDx=0;entryDy=0;strokeWidth=3;" edge="1" parent="1" target="Ot4UVluapDfgmTh8NWDO-3">
          <mxGeometry relative="1" as="geometry">
            <mxPoint x="920" y="300" as="sourcePoint" />
            <mxPoint x="790" y="290" as="targetPoint" />
          </mxGeometry>
        </mxCell>
        <mxCell id="Ot4UVluapDfgmTh8NWDO-45" value="&lt;b&gt;&lt;font style=&quot;font-size: 13px;&quot;&gt;Departamentos&lt;/font&gt;&lt;/b&gt;" style="whiteSpace=wrap;html=1;align=center;fillColor=#1ba1e2;fontColor=#ffffff;strokeColor=#006EAF;" vertex="1" parent="1">
          <mxGeometry x="870" y="260" width="100" height="40" as="geometry" />
        </mxCell>
        <mxCell id="Ot4UVluapDfgmTh8NWDO-47" value="Nome_Depto" style="ellipse;whiteSpace=wrap;html=1;align=center;fillColor=#008a00;fontColor=#ffffff;strokeColor=#005700;" vertex="1" parent="1">
          <mxGeometry x="960" y="160" width="100" height="40" as="geometry" />
        </mxCell>
        <mxCell id="Ot4UVluapDfgmTh8NWDO-48" value="" style="endArrow=none;html=1;rounded=0;entryX=0.5;entryY=0;entryDx=0;entryDy=0;exitX=0.5;exitY=1;exitDx=0;exitDy=0;" edge="1" parent="1" target="Ot4UVluapDfgmTh8NWDO-45">
          <mxGeometry relative="1" as="geometry">
            <mxPoint x="820" y="200" as="sourcePoint" />
            <mxPoint x="920" y="230" as="targetPoint" />
          </mxGeometry>
        </mxCell>
        <mxCell id="Ot4UVluapDfgmTh8NWDO-49" value="" style="endArrow=none;html=1;rounded=0;exitX=0.5;exitY=0;exitDx=0;exitDy=0;entryX=0.5;entryY=1;entryDx=0;entryDy=0;" edge="1" parent="1" source="Ot4UVluapDfgmTh8NWDO-45" target="Ot4UVluapDfgmTh8NWDO-47">
          <mxGeometry relative="1" as="geometry">
            <mxPoint x="930" y="220" as="sourcePoint" />
            <mxPoint x="1090" y="220" as="targetPoint" />
          </mxGeometry>
        </mxCell>
        <mxCell id="Ot4UVluapDfgmTh8NWDO-50" value="Cod_Depto" style="ellipse;whiteSpace=wrap;html=1;align=center;fontStyle=4;fillColor=#008a00;fontColor=#ffffff;strokeColor=#005700;" vertex="1" parent="1">
          <mxGeometry x="770" y="160" width="100" height="40" as="geometry" />
        </mxCell>
        <mxCell id="Ot4UVluapDfgmTh8NWDO-52" value="Itens_Solicitacao" style="whiteSpace=wrap;html=1;align=center;fillColor=#1ba1e2;fontColor=#ffffff;strokeColor=#006EAF;" vertex="1" parent="1">
          <mxGeometry x="870" y="650" width="100" height="40" as="geometry" />
        </mxCell>
        <mxCell id="Ot4UVluapDfgmTh8NWDO-53" value="" style="endArrow=none;html=1;rounded=0;exitX=0.5;exitY=0;exitDx=0;exitDy=0;" edge="1" parent="1" source="Ot4UVluapDfgmTh8NWDO-56">
          <mxGeometry relative="1" as="geometry">
            <mxPoint x="810" y="750" as="sourcePoint" />
            <mxPoint x="920" y="690" as="targetPoint" />
          </mxGeometry>
        </mxCell>
        <mxCell id="Ot4UVluapDfgmTh8NWDO-55" value="" style="endArrow=none;html=1;rounded=0;exitX=0.5;exitY=1;exitDx=0;exitDy=0;entryX=0.5;entryY=0;entryDx=0;entryDy=0;" edge="1" parent="1" source="Ot4UVluapDfgmTh8NWDO-52" target="Ot4UVluapDfgmTh8NWDO-57">
          <mxGeometry relative="1" as="geometry">
            <mxPoint x="930" y="740" as="sourcePoint" />
            <mxPoint x="990" y="750" as="targetPoint" />
          </mxGeometry>
        </mxCell>
        <mxCell id="Ot4UVluapDfgmTh8NWDO-56" value="Num_Sol" style="ellipse;whiteSpace=wrap;html=1;align=center;fontStyle=4;fillColor=#a0522d;fontColor=#ffffff;strokeColor=#6D1F00;" vertex="1" parent="1">
          <mxGeometry x="679" y="730" width="100" height="40" as="geometry" />
        </mxCell>
        <mxCell id="Ot4UVluapDfgmTh8NWDO-57" value="Cod_Produto" style="ellipse;whiteSpace=wrap;html=1;align=center;fontStyle=4;fillColor=#a0522d;fontColor=#ffffff;strokeColor=#6D1F00;" vertex="1" parent="1">
          <mxGeometry x="750" y="810" width="100" height="40" as="geometry" />
        </mxCell>
        <mxCell id="Ot4UVluapDfgmTh8NWDO-58" value="Valor" style="ellipse;whiteSpace=wrap;html=1;align=center;fillColor=#a0522d;fontColor=#ffffff;strokeColor=#6D1F00;" vertex="1" parent="1">
          <mxGeometry x="1037" y="740" width="100" height="40" as="geometry" />
        </mxCell>
        <mxCell id="Ot4UVluapDfgmTh8NWDO-59" value="Qtde" style="ellipse;whiteSpace=wrap;html=1;align=center;fillColor=#a0522d;fontColor=#ffffff;strokeColor=#6D1F00;" vertex="1" parent="1">
          <mxGeometry x="970" y="810" width="100" height="40" as="geometry" />
        </mxCell>
        <mxCell id="Ot4UVluapDfgmTh8NWDO-60" value="" style="endArrow=none;html=1;rounded=0;exitX=0.5;exitY=1;exitDx=0;exitDy=0;entryX=0.5;entryY=0;entryDx=0;entryDy=0;" edge="1" parent="1" source="Ot4UVluapDfgmTh8NWDO-52" target="Ot4UVluapDfgmTh8NWDO-58">
          <mxGeometry relative="1" as="geometry">
            <mxPoint x="920" y="780" as="sourcePoint" />
            <mxPoint x="1080" y="780" as="targetPoint" />
          </mxGeometry>
        </mxCell>
        <mxCell id="Ot4UVluapDfgmTh8NWDO-61" value="" style="endArrow=none;html=1;rounded=0;exitX=0.5;exitY=1;exitDx=0;exitDy=0;entryX=0.5;entryY=0;entryDx=0;entryDy=0;" edge="1" parent="1" source="Ot4UVluapDfgmTh8NWDO-52" target="Ot4UVluapDfgmTh8NWDO-59">
          <mxGeometry relative="1" as="geometry">
            <mxPoint x="890" y="770" as="sourcePoint" />
            <mxPoint x="1050" y="770" as="targetPoint" />
          </mxGeometry>
        </mxCell>
        <mxCell id="Ot4UVluapDfgmTh8NWDO-62" value="" style="endArrow=none;html=1;rounded=0;exitX=0.5;exitY=1;exitDx=0;exitDy=0;entryX=0.5;entryY=0;entryDx=0;entryDy=0;strokeWidth=2;" edge="1" parent="1" source="Ot4UVluapDfgmTh8NWDO-3" target="Ot4UVluapDfgmTh8NWDO-52">
          <mxGeometry relative="1" as="geometry">
            <mxPoint x="940" y="569.41" as="sourcePoint" />
            <mxPoint x="1100" y="569.41" as="targetPoint" />
          </mxGeometry>
        </mxCell>
        <mxCell id="Ot4UVluapDfgmTh8NWDO-63" value="N" style="resizable=0;html=1;whiteSpace=wrap;align=right;verticalAlign=bottom;" connectable="0" vertex="1" parent="Ot4UVluapDfgmTh8NWDO-62">
          <mxGeometry x="1" relative="1" as="geometry" />
        </mxCell>
        <mxCell id="Ot4UVluapDfgmTh8NWDO-64" value="&lt;font style=&quot;font-size: 15px;&quot;&gt;1&lt;/font&gt;" style="text;strokeColor=none;align=center;fillColor=none;html=1;verticalAlign=middle;whiteSpace=wrap;rounded=0;strokeWidth=3;" vertex="1" parent="1">
          <mxGeometry x="570" y="410" width="60" height="30" as="geometry" />
        </mxCell>
        <mxCell id="Ot4UVluapDfgmTh8NWDO-66" value="&lt;font style=&quot;font-size: 15px;&quot;&gt;1&lt;/font&gt;" style="text;strokeColor=none;align=center;fillColor=none;html=1;verticalAlign=middle;whiteSpace=wrap;rounded=0;strokeWidth=3;" vertex="1" parent="1">
          <mxGeometry x="900" y="380" width="60" height="30" as="geometry" />
        </mxCell>
        <mxCell id="Ot4UVluapDfgmTh8NWDO-67" value="&lt;font style=&quot;font-size: 12px;&quot;&gt;N&lt;/font&gt;" style="text;strokeColor=none;align=center;fillColor=none;html=1;verticalAlign=middle;whiteSpace=wrap;rounded=0;strokeWidth=1;" vertex="1" parent="1">
          <mxGeometry x="960" y="410" width="60" height="30" as="geometry" />
        </mxCell>
      </root>
    </mxGraphModel>
  </diagram>
</mxfile>
